<svg xmlns="http://www.w3.org/2000/svg" viewBox="0 0 800 450" role="img" aria-label="Futuristic racing car speeding through a vivid city">
  <defs><linearGradient id="a" x1="0" y1="0" x2="1" y2="1"><stop stop-color="#09101d"/><stop offset="1" stop-color="#1c1734"/></linearGradient><linearGradient id="r"><stop stop-color="#ff4f78"/><stop offset="1" stop-color="#ffca5a"/></linearGradient></defs><rect width="800" height="450" fill="url(#a)"/><g fill="#161e36"><path d="M0 320V120h85v200M104 320V60h106v260M590 320V100h90v220M700 320V32h100v288"/></g><g stroke="#5ff1dd" opacity=".4"><path d="M0 410 420 270 800 410M100 450 430 270M700 450 430 270"/><path d="M0 350h800M0 390h800"/></g><path d="M220 326 335 262h155l112 64-55 50H260Z" fill="#f2f4ff"/><path d="m335 262 38-72h112l5 72Z" fill="#242b4c" stroke="#6df6e2" stroke-width="4"/><path d="M260 376h287l-34 39H295Z" fill="url(#r)"/><circle cx="305" cy="358" r="31" fill="#080a12" stroke="#ffca5a" stroke-width="8"/><circle cx="523" cy="358" r="31" fill="#080a12" stroke="#ffca5a" stroke-width="8"/><path d="M190 280H52M205 310H10M620 290h164" stroke="#ff4f78" stroke-width="7" opacity=".7"/><text x="48" y="72" fill="#fff" font-family="Arial" font-weight="700" font-size="31" letter-spacing="4">VELOCITY ZERO</text><text x="50" y="101" fill="#ff7c9c" font-family="Arial" font-size="14">SPEED HAS CONSEQUENCES</text>
</svg>
